<svg xmlns="http://www.w3.org/2000/svg" viewBox="0 0 64 64"><linearGradient id="FDn_YcGsCygBhZNciEyCVa" x1="32" x2="32" y1="5.836" y2="58.67" gradientUnits="userSpaceOnUse" spreadMethod="reflect"><stop offset="0" stop-color="#1a6dff"/><stop offset="1" stop-color="#c822ff"/></linearGradient><path fill="url(#FDn_YcGsCygBhZNciEyCVa)" d="M54,6c-2.206,0-4,1.794-4,4c0,1.239,0.578,2.334,1.465,3.068l-3.736,8.006 C47.492,21.03,47.25,21,47,21c-1.366,0-2.572,0.69-3.294,1.738l-14.744-5.361C28.974,17.251,29,17.129,29,17c0-2.206-1.794-4-4-4 s-4,1.794-4,4s1.794,4,4,4c0.287,0,0.566-0.033,0.836-0.091L36.382,42c-0.309,0.27-0.575,0.581-0.79,0.933l-12.608-3.782 C22.987,39.1,23,39.052,23,39c0-2.206-1.794-4-4-4s-4,1.794-4,4c0,1.091,0.441,2.08,1.153,2.803l-5.027,8.378 C10.766,50.075,10.393,50,10,50c-2.206,0-4,1.794-4,4s1.794,4,4,4s4-1.794,4-4c0-1.091-0.441-2.08-1.152-2.802l5.027-8.379 C18.234,42.925,18.607,43,19,43c1.447,0,2.705-0.78,3.408-1.934l12.608,3.782C35.013,44.9,35,44.948,35,45c0,2.206,1.794,4,4,4 s4-1.794,4-4s-1.794-4-4-4c-0.287,0-0.566,0.033-0.836,0.091L27.618,20c0.252-0.22,0.485-0.461,0.676-0.738l14.744,5.362 C43.026,24.749,43,24.871,43,25c0,2.206,1.794,4,4,4s4-1.794,4-4c0-1.239-0.578-2.334-1.465-3.068l3.736-8.005 C53.508,13.97,53.75,14,54,14c2.206,0,4-1.794,4-4S56.206,6,54,6z"/><linearGradient id="FDn_YcGsCygBhZNciEyCVb" x1="54" x2="54" y1="8" y2="12.02" gradientUnits="userSpaceOnUse" spreadMethod="reflect"><stop offset="0" stop-color="#6dc7ff"/><stop offset="1" stop-color="#e6abff"/></linearGradient><path fill="url(#FDn_YcGsCygBhZNciEyCVb)" d="M54 8A2 2 0 1 0 54 12A2 2 0 1 0 54 8Z"/><linearGradient id="FDn_YcGsCygBhZNciEyCVc" x1="47" x2="47" y1="23" y2="27.02" gradientUnits="userSpaceOnUse" spreadMethod="reflect"><stop offset="0" stop-color="#6dc7ff"/><stop offset="1" stop-color="#e6abff"/></linearGradient><path fill="url(#FDn_YcGsCygBhZNciEyCVc)" d="M47 23A2 2 0 1 0 47 27A2 2 0 1 0 47 23Z"/><linearGradient id="FDn_YcGsCygBhZNciEyCVd" x1="25" x2="25" y1="15" y2="19.02" gradientUnits="userSpaceOnUse" spreadMethod="reflect"><stop offset="0" stop-color="#6dc7ff"/><stop offset="1" stop-color="#e6abff"/></linearGradient><path fill="url(#FDn_YcGsCygBhZNciEyCVd)" d="M25 15A2 2 0 1 0 25 19A2 2 0 1 0 25 15Z"/><linearGradient id="FDn_YcGsCygBhZNciEyCVe" x1="39" x2="39" y1="43" y2="47.02" gradientUnits="userSpaceOnUse" spreadMethod="reflect"><stop offset="0" stop-color="#6dc7ff"/><stop offset="1" stop-color="#e6abff"/></linearGradient><path fill="url(#FDn_YcGsCygBhZNciEyCVe)" d="M39 43A2 2 0 1 0 39 47A2 2 0 1 0 39 43Z"/><linearGradient id="FDn_YcGsCygBhZNciEyCVf" x1="19" x2="19" y1="37" y2="41.02" gradientUnits="userSpaceOnUse" spreadMethod="reflect"><stop offset="0" stop-color="#6dc7ff"/><stop offset="1" stop-color="#e6abff"/></linearGradient><path fill="url(#FDn_YcGsCygBhZNciEyCVf)" d="M19 37A2 2 0 1 0 19 41A2 2 0 1 0 19 37Z"/><linearGradient id="FDn_YcGsCygBhZNciEyCVg" x1="10" x2="10" y1="52" y2="56.02" gradientUnits="userSpaceOnUse" spreadMethod="reflect"><stop offset="0" stop-color="#6dc7ff"/><stop offset="1" stop-color="#e6abff"/></linearGradient><path fill="url(#FDn_YcGsCygBhZNciEyCVg)" d="M10 52A2 2 0 1 0 10 56A2 2 0 1 0 10 52Z"/></svg>